<svg width="140" height="160" viewBox="0 0 140 160" fill="none" xmlns="http://www.w3.org/2000/svg">
<g id="Frame 280535">
<g id="Group 1000001865">
<g id="Group 1279">
<g id="Vector" filter="url(#filter0_d_6154_33651)">
<path d="M110 76.0002V76.2827C109.97 84.1746 106.811 91.733 101.214 97.3029C95.6181 102.873 88.0407 106 80.1414 106H58.0022C55.88 106 53.8448 105.158 52.3441 103.659C50.8435 102.159 50.0005 100.126 50.0005 98.0057V76.0002C49.978 72.0566 50.7384 68.1478 52.2377 64.4998C53.737 60.8517 55.9455 57.5369 58.7353 54.747C61.5251 51.9572 64.841 49.7477 68.491 48.2463C72.141 46.745 76.0528 45.9816 80 46.0003H80.2827C84.2062 46.0188 88.0875 46.8097 91.7048 48.3277C95.3221 49.8457 98.6045 52.0611 101.364 54.8472C104.124 57.6333 106.307 60.9356 107.789 64.5651C109.271 68.1947 110.022 72.0804 110 76.0002Z" fill="#059AE5"/>
</g>
</g>
<path id="Subtract" fill-rule="evenodd" clip-rule="evenodd" d="M88.8571 60L96 71.4909L92.7143 73.9636L96 76.4364L88.8571 87.9273H74.1429L65.7143 92L69.2857 82.6909L64 73.9636L72.5714 60H80.4286H88.8571ZM75.0006 74.6909C75.0006 75.4139 74.425 76 73.7149 76C73.0048 76 72.4292 75.4139 72.4292 74.6909C72.4292 73.9679 73.0048 73.3818 73.7149 73.3818C74.425 73.3818 75.0006 73.9679 75.0006 74.6909ZM80.0024 76C80.7125 76 81.2881 75.4139 81.2881 74.6909C81.2881 73.9679 80.7125 73.3818 80.0024 73.3818C79.2923 73.3818 78.7167 73.9679 78.7167 74.6909C78.7167 75.4139 79.2923 76 80.0024 76ZM87.5735 74.6909C87.5735 75.4139 86.9979 76 86.2878 76C85.5777 76 85.0021 75.4139 85.0021 74.6909C85.0021 73.9679 85.5777 73.3818 86.2878 73.3818C86.9979 73.3818 87.5735 73.9679 87.5735 74.6909Z" fill="white"/>
</g>
</g>
<defs>
<filter id="filter0_d_6154_33651" x="0" y="0" width="160" height="160" filterUnits="userSpaceOnUse" color-interpolation-filters="sRGB">
<feFlood flood-opacity="0" result="BackgroundImageFix"/>
<feColorMatrix in="SourceAlpha" type="matrix" values="0 0 0 0 0 0 0 0 0 0 0 0 0 0 0 0 0 0 127 0" result="hardAlpha"/>
<feOffset dy="4"/>
<feGaussianBlur stdDeviation="25"/>
<feColorMatrix type="matrix" values="0 0 0 0 0.152941 0 0 0 0 0.203922 0 0 0 0 0.266667 0 0 0 0.4 0"/>
<feBlend mode="darken" in2="BackgroundImageFix" result="effect1_dropShadow_6154_33651"/>
<feBlend mode="normal" in="SourceGraphic" in2="effect1_dropShadow_6154_33651" result="shape"/>
</filter>
</defs>
</svg>
